<svg width="20" height="20" viewBox="0 0 20 20" fill="none" xmlns="http://www.w3.org/2000/svg">
<path d="M10.5 7.6C9.81285 7.6 9.15384 7.85286 8.66795 8.30294C8.18206 8.75303 7.90909 9.36348 7.90909 10C7.90909 10.6365 8.18206 11.247 8.66795 11.6971C9.15384 12.1471 9.81285 12.4 10.5 12.4C11.1872 12.4 11.8462 12.1471 12.3321 11.6971C12.8179 11.247 13.0909 10.6365 13.0909 10C13.0909 9.36348 12.8179 8.75303 12.3321 8.30294C11.8462 7.85286 11.1872 7.6 10.5 7.6ZM10.5 14C9.35475 14 8.2564 13.5786 7.44658 12.8284C6.63677 12.0783 6.18182 11.0609 6.18182 10C6.18182 8.93913 6.63677 7.92172 7.44658 7.17157C8.2564 6.42143 9.35475 6 10.5 6C11.6453 6 12.7436 6.42143 13.5534 7.17157C14.3632 7.92172 14.8182 8.93913 14.8182 10C14.8182 11.0609 14.3632 12.0783 13.5534 12.8284C12.7436 13.5786 11.6453 14 10.5 14ZM10.5 4C6.18182 4 2.49409 6.488 1 10C2.49409 13.512 6.18182 16 10.5 16C14.8182 16 18.5059 13.512 20 10C18.5059 6.488 14.8182 4 10.5 4Z" fill="black"/>
</svg>
