<svg width="30" height="30" viewBox="0 0 30 30" fill="none" xmlns="http://www.w3.org/2000/svg">
<path d="M18.5 17H17.71L17.43 16.73C18.4439 15.554 19.0011 14.0527 19 12.5C19 11.2144 18.6188 9.95772 17.9046 8.8888C17.1903 7.81988 16.1752 6.98676 14.9874 6.49479C13.7997 6.00282 12.4928 5.87409 11.2319 6.1249C9.97104 6.3757 8.81285 6.99477 7.90381 7.90381C6.99477 8.81285 6.3757 9.97104 6.1249 11.2319C5.87409 12.4928 6.00282 13.7997 6.49479 14.9874C6.98676 16.1752 7.81988 17.1903 8.8888 17.9046C9.95772 18.6188 11.2144 19 12.5 19C14.11 19 15.59 18.41 16.73 17.43L17 17.71V18.5L22 23.49L23.49 22L18.5 17ZM12.5 17C10.01 17 8 14.99 8 12.5C8 10.01 10.01 8 12.5 8C14.99 8 17 10.01 17 12.5C17 14.99 14.99 17 12.5 17Z" fill="white"/>
</svg>
